{"title":"The Money Pit (1986) 720p AC3 (5.1) HDTV no logos","uid":8912135,"size":1816025156,"categoryP":"video","categoryS":"hd___movies","magnet":"?xt=urn:btih:3f1ec5cddddcf0e3f15f6ee6f8e39c2d08730625&amp;dn=The+Money+Pit+%281986%29+720p+AC3+%285.1%29+HDTV+no+logos&amp;tr=udp%3A%2F%2Ftracker.openbittorrent.com%3A80&amp;tr=udp%3A%2F%2Fopen.demonii.com%3A1337&amp;tr=udp%3A%2F%2Ftracker.coppersurfer.tk%3A6969&amp;tr=udp%3A%2F%2Fexodus.desync.com%3A6969","seeders":3,"leechers":1,"uploader":"nabsltd","files":2,"time":1379050348,"description":"This is my own rip.\n\nGeneral\nUnique ID                        : 176589867320845721943035491187256616474 (0x84D9F8A966BB0C61A159CAF0C012661A)\nFormat                           : Matroska\nFormat version                   : Version 4 / Version 2\nFile size                        : 1.67 GiB\nDuration                         : 1h 30mn\nOverall bit rate mode            : Variable\nOverall bit rate                 : 2 626 Kbps\nEncoded date                     : UTC 2013-09-12 16:33:41\nWriting application              : mkvmerge v6.3.0 ('You can't stop me!') built on Jun 28 2013 20:09:41\nWriting library                  : libebml v1.3.0 + libmatroska v1.4.0\n\nVideo\nID                               : 1\nFormat                           : AVC\nFormat/Info                      : Advanced Video Codec\nFormat profile                   : &lt;a class=&quot;__cf_email__&quot; href=&quot;/cdn-cgi/l/email-protection&quot; data-cfemail=&quot;a0e8c9c7c8e0ec948e91&quot;&gt;[email&amp;#160;protected]&lt;/a&gt;&lt;script cf-hash='f9e31' type=&quot;text/javascript&quot;&gt;\n/* &lt;![CDATA[ */!function(){try{var t=&quot;currentScript&quot;in document?document.currentScript:function(){for(var t=document.getElementsByTagName(&quot;script&quot;),e=t.length;e--;)if(t[e].getAttribute(&quot;cf-hash&quot;))return t[e]}();if(t&amp;&amp;t.previousSibling){var e,r,n,i,c=t.previousSibling,a=c.getAttribute(&quot;data-cfemail&quot;);if(a){for(e=&quot;&quot;,r=parseInt(a.substr(0,2),16),n=2;a.length-n;n+=2)i=parseInt(a.substr(n,2),16)^r,e+=String.fromCharCode(i);e=document.createTextNode(e),c.parentNode.replaceChild(e,c)}}}catch(u){}}();/* ]]&gt; */&lt;/script&gt;\nFormat settings, CABAC           : Yes\nFormat settings, ReFrames        : 7 frames\nCodec ID                         : V_MPEG4/ISO/AVC\nDuration                         : 1h 30mn\nBit rate mode                    : Variable\nBit rate                         : 2 190 Kbps\nMaximum bit rate                 : 10.3 Mbps\nWidth                            : 1 280 pixels\nHeight                           : 692 pixels\nDisplay aspect ratio             : 1.850\nFrame rate                       : 23.976 fps\nColor space                      : YUV\nChroma subsampling               : 4:2:0\nBit depth                        : 8 bits\nScan type                        : Progressive\nBits/(Pixel*Frame)               : 0.103\nStream size                      : 1.39 GiB (83%)\nWriting library                  : x264 core 135 r2345 f0c1c53\nLanguage                         : English\nDefault                          : Yes\nForced                           : No\n\nAudio\nID                               : 2\nFormat                           : AC-3\nFormat/Info                      : Audio Coding 3\nMode extension                   : CM (complete main)\nCodec ID                         : A_AC3\nDuration                         : 1h 30mn\nBit rate mode                    : Constant\nBit rate                         : 384 Kbps\nChannel(s)                       : 6 channels\nChannel positions                : Front: L C R, Side: L R, LFE\nSampling rate                    : 48.0 KHz\nBit depth                        : 16 bits\nCompression mode                 : Lossy\nStream size                      : 249 MiB (15%)\nLanguage                         : English\nDefault                          : Yes\nForced                           : No\n\nMenu\n00:00:00.000                     : en:My Son's Problem\n00:01:44.313                     : en:Main Titles\n00:04:13.920                     : en:The Maestro's Back\n00:14:39.462                     : en:The House\n00:22:30.099                     : en:Sitting on a Dream\n00:29:30.143                     : en:The Carpenter\n00:34:14.970                     : en:Life Is Good\n00:38:27.388                     : en:A Little Overdone\n00:43:36.864                     : en:The Shirks Show Up\n00:50:30.152                     : en:Bugged in a Rug\n00:56:37.686                     : en:Four Months Later\n01:00:34.589                     : en:All Fall Down\n01:03:28.805                     : en:Max Makes His Move\n01:07:32.799                     : en:Tell Me the Truth\n01:13:56.329                     : en:A House Divided\n01:18:17.276                     : en:The Whole Truth\n01:21:32.429                     : en:A Good Foundation\n01:26:37.317                     : en:End Titles\n","torrent":{"xt":"urn:btih:3f1ec5cddddcf0e3f15f6ee6f8e39c2d08730625","amp;dn":"The+Money+Pit+%281986%29+720p+AC3+%285.1%29+HDTV+no+logos","amp;tr":["udp%3A%2F%2Ftracker.openbittorrent.com%3A80","udp%3A%2F%2Fopen.demonii.com%3A1337","udp%3A%2F%2Ftracker.coppersurfer.tk%3A6969","udp%3A%2F%2Fexodus.desync.com%3A6969"],"infoHash":"3f1ec5cddddcf0e3f15f6ee6f8e39c2d08730625","infoHashBuffer":{"type":"Buffer","data":[63,30,197,205,221,220,240,227,241,95,110,230,248,227,156,45,8,115,6,37]},"announce":[],"urlList":[]}}